<svg width="650" height="654" viewBox="0 0 650 654" fill="none" xmlns="http://www.w3.org/2000/svg">
<g clip-path="url(#clip0_506_139)">
<path d="M60.2891 432.317L72.2781 438.104L100.307 394.612L82.6111 386.071L60.2891 432.317Z" fill="#694545"/>
<path d="M53.8301 444.62L90.6994 462.417L90.9245 461.951C92.7615 458.145 93.0115 453.765 91.6195 449.775C90.2275 445.784 87.3075 442.511 83.5018 440.673L83.5009 440.673L79.2329 432.312L64.2009 431.356L60.9824 429.803L53.8301 444.62Z" fill="black"/>
<path d="M149.536 448.529L162.848 448.528L169.182 397.176L149.533 397.177L149.536 448.529Z" fill="#694545"/>
<path d="M149.067 462.417L190.007 462.416V461.898C190.007 457.672 188.328 453.619 185.34 450.631C182.351 447.643 178.298 445.964 174.072 445.963H174.071L166.593 440.29L152.64 445.964L149.066 445.964L149.067 462.417Z" fill="black"/>
<path d="M162.729 210.367L177.985 315.571L179.281 339.218L171.281 413.009L174.528 420.159L165.454 425.755H146.99L146.011 347.807L132.165 282.525L130.023 356.518L127.059 362.236C116.018 387.287 101.144 395.489 90.6286 414.215L72.1639 404.213L72.5511 396.754C68.8416 394.876 78.1204 389.387 79.012 385.326L80.6269 378.055L91.398 355.743L91.8089 347.886L88.8611 294.445L90.2482 222.48L114.468 203.959L162.729 210.367Z" fill="#000724"/>
<path d="M139.528 61.2198C152.777 61.2198 163.517 50.4797 163.517 37.231C163.517 23.9824 152.777 13.2422 139.528 13.2422C126.279 13.2422 115.539 23.9824 115.539 37.231C115.539 50.4797 126.279 61.2198 139.528 61.2198Z" fill="#694545"/>
<path d="M142.829 229.782C111.204 229.783 87.4804 217.872 87.1558 217.705L86.8748 217.561L86.9612 217.257C87.8102 214.284 88.6145 209.296 87.1592 208.569C87.0026 208.509 86.8636 208.41 86.7552 208.282C86.6468 208.154 86.5724 208.001 86.539 207.836C86.4556 207.239 87.054 206.693 87.8824 205.936C89.4902 204.467 91.6924 202.456 90.4008 199.228C88.1239 193.537 94.526 164.37 94.94 162.5L92.2055 116.009C91.7073 107.138 94.2784 98.3668 99.4865 91.169C104.695 83.9711 112.222 78.7859 120.803 76.485L120.864 76.4689L120.927 76.473C121.816 76.523 122.758 73.5034 123.472 71.2937C124.527 68.0277 125.223 66.0209 126.411 66.1061C135.61 66.6993 141.74 67.0874 145.825 67.3409C153.569 67.8222 154.926 77.2419 155.093 78.7458C163.429 83.8254 169.948 91.4081 173.72 100.412C177.492 109.416 178.324 119.381 176.098 128.885L172.238 145.483L168.827 153.458L169.951 169.192C175.241 173.591 173.725 182.592 173.424 184.112C178.465 189.328 175.37 195.466 174.619 196.766C175.909 198.342 176.787 200.215 177.174 202.216C177.561 204.216 177.445 206.281 176.835 208.226L181.479 223.316L181.128 223.438C168.809 227.691 155.861 229.836 142.829 229.782V229.782Z" fill="black"/>
<path d="M291.447 72.3204C290.612 71.2405 289.55 70.357 288.336 69.7321C287.122 69.1071 285.786 68.7559 284.421 68.7032C283.057 68.6506 281.698 68.8977 280.439 69.4271C279.181 69.9566 278.054 70.7556 277.138 71.7678L201.284 72.1806L179.733 82.5922L176.938 94.5251L211.761 93.0692L278.231 85.4771C280.033 86.9038 282.296 87.6197 284.591 87.4892C286.886 87.3587 289.054 86.3909 290.683 84.7691C292.312 83.1474 293.29 80.9844 293.431 78.69C293.571 76.3956 292.866 74.1293 291.447 72.3204H291.447Z" fill="#694545"/>
<path d="M206.216 97.2684L176.689 111.236L149.316 99.777L149.289 99.5556C148.773 95.5068 149.484 91.3963 151.329 87.7557C153.174 84.1152 156.07 81.112 159.64 79.1346C165.353 75.9505 171.58 73.7945 178.039 72.7649C196.145 70.0714 199.818 69.0369 199.853 69.0266L200.251 68.9111L206.216 97.2684Z" fill="black"/>
<path d="M119.187 52.3092C118.891 52.3104 118.597 52.263 118.316 52.1687C117.214 51.6856 116.292 50.8667 115.683 49.8287C111.432 43.7136 109.379 35.5605 109.582 25.5957C109.668 21.38 110.145 15.9899 113.098 11.6934C115.58 8.08067 120.603 5.21359 125.283 6.65276C125.23 5.71683 125.438 4.78449 125.883 3.95977C126.329 3.13505 126.995 2.45037 127.807 1.98213C129.601 1.06075 131.581 0.560577 133.597 0.519661C138.35 0.0741209 143.264 -0.386442 148.078 0.525658C153.475 1.54935 157.888 4.33115 160.185 8.15766L160.232 8.27787L160.699 10.5454C160.762 10.8502 160.89 11.1378 161.074 11.3884C161.259 11.639 161.496 11.8466 161.768 11.9969C162.041 12.1472 162.342 12.2367 162.653 12.2591C162.963 12.2816 163.275 12.2365 163.566 12.1269C163.884 12.0073 164.228 11.9725 164.563 12.0262C164.899 12.0799 165.214 12.2201 165.479 12.4331C165.744 12.646 165.948 12.9243 166.073 13.2405C166.197 13.5566 166.237 13.8997 166.188 14.2359L166.057 15.1379L167.415 14.8839C167.755 14.8206 168.105 14.8484 168.431 14.9646C168.756 15.0807 169.045 15.281 169.268 15.5451C169.49 15.8092 169.639 16.1276 169.699 16.4679C169.758 16.8082 169.727 17.1583 169.607 17.4824L169.224 18.5196C169.504 18.5214 169.782 18.5807 170.039 18.6939C170.296 18.8071 170.527 18.9718 170.718 19.1778C170.993 19.4731 171.166 19.8484 171.212 20.249C171.258 20.6496 171.175 21.0545 170.975 21.4044C169.458 23.9988 167.305 26.1643 164.72 27.6971C163.307 28.547 161.763 29.1546 160.149 29.4947C149.681 31.7538 138.888 32.0783 128.302 30.4523C128.929 32.54 129.17 34.7245 129.014 36.8987C128.922 38.1317 128.495 39.3161 127.778 40.3236C127.061 41.331 126.082 42.1231 124.948 42.6141C124.462 42.772 123.965 42.8918 123.462 42.9724C122.98 43.0475 122.505 43.1628 122.043 43.3173C121.357 43.5691 120.75 43.9972 120.283 44.5584C119.816 45.1196 119.505 45.7942 119.382 46.5139C119.258 47.2337 119.327 47.9732 119.581 48.658C119.835 49.3427 120.264 49.9484 120.827 50.414L121.878 49.3186L121.536 50.7112C121.465 50.9823 121.337 51.2353 121.162 51.4539C120.986 51.6725 120.767 51.8516 120.517 51.9798C120.108 52.1981 119.651 52.3113 119.187 52.3092Z" fill="black"/>
<path d="M279.83 344.676C355.493 344.676 416.83 284.276 416.83 209.768C416.83 135.26 355.493 74.8594 279.83 74.8594C204.167 74.8594 142.83 135.26 142.83 209.768C142.83 284.276 204.167 344.676 279.83 344.676Z" fill="#E6E6E6"/>
<path d="M393.343 209.769C393.361 225.946 389.809 241.928 382.94 256.574C382.729 257.026 382.511 257.478 382.293 257.929C371.788 279.447 354.721 297.073 333.552 308.266C333.108 308.499 332.664 308.732 332.22 308.958C316.008 317.268 298.046 321.585 279.829 321.551C273.51 321.553 267.201 321.04 260.965 320.016C260.468 319.933 259.971 319.85 259.482 319.76C236.149 315.608 214.694 304.277 198.111 287.347C197.764 286.993 197.418 286.632 197.064 286.27C181.181 269.69 170.844 248.583 167.481 225.87C167.414 225.373 167.338 224.876 167.278 224.379C164.21 201.286 168.512 177.814 179.57 157.309C179.804 156.865 180.052 156.421 180.293 155.985C188.811 140.774 200.735 127.743 215.13 117.911C215.544 117.625 215.958 117.346 216.372 117.068C230.282 107.818 246.056 101.741 262.576 99.2652C263.073 99.1974 263.57 99.1221 264.066 99.0544C269.29 98.3397 274.557 97.9826 279.829 97.9855C296.432 97.9584 312.842 101.541 327.922 108.486C328.381 108.697 328.833 108.908 329.284 109.126C343.39 115.856 355.954 125.425 366.191 137.234C366.523 137.61 366.854 137.994 367.17 138.378C379.544 152.982 387.912 170.55 391.454 189.361V189.369C391.552 189.858 391.634 190.348 391.717 190.844C392.802 197.094 393.346 203.425 393.343 209.769V209.769Z" fill="white"/>
<path d="M291.037 201.271C292.6 203.207 293.614 205.527 293.973 207.989L348.666 197.673C346.507 186.046 341.357 175.182 333.724 166.148L291.037 201.271Z" fill="#74A91B"/>
<path d="M350.384 198.635C350.317 198.139 350.226 197.649 350.136 197.16V197.153C347.932 185.275 342.676 174.175 334.885 164.943C334.562 164.559 334.231 164.175 333.899 163.806C327.619 156.651 319.979 150.817 311.422 146.643H311.415C310.963 146.425 310.519 146.207 310.06 145.996C297.509 140.232 283.573 138.177 269.893 140.072C269.396 140.132 268.9 140.207 268.403 140.29C258.49 141.859 249.019 145.496 240.604 150.964C240.182 151.235 239.761 151.514 239.347 151.8C230.106 158.064 222.469 166.413 217.05 176.174C216.809 176.61 216.569 177.054 216.328 177.506C209.56 190.387 207.016 205.072 209.056 219.479C209.116 219.983 209.192 220.48 209.282 220.97C211.561 234.849 217.987 247.713 227.717 257.869C228.055 258.231 228.402 258.592 228.763 258.946C239.005 269.269 252.145 276.231 266.438 278.908C266.935 279.006 267.432 279.089 267.928 279.172C283.16 281.7 298.801 279.3 312.574 272.322C313.018 272.096 313.455 271.863 313.899 271.622H313.906C326.927 264.656 337.462 253.816 344.054 240.601C344.28 240.15 344.498 239.698 344.709 239.246C350.657 226.593 352.635 212.435 350.384 198.636L350.384 198.635ZM343.339 238.621C343.128 239.081 342.91 239.532 342.684 239.976C336.225 252.89 325.921 263.483 313.191 270.297C312.747 270.53 312.303 270.764 311.859 270.99C298.387 277.82 283.084 280.164 268.185 277.681C267.688 277.606 267.183 277.523 266.694 277.426C252.727 274.806 239.885 268.004 229.87 257.922C229.508 257.568 229.162 257.207 228.816 256.845C219.309 246.917 213.02 234.35 210.772 220.789C210.69 220.3 210.614 219.803 210.547 219.306C208.552 205.21 211.038 190.843 217.653 178.236C217.878 177.792 218.119 177.348 218.368 176.904C223.68 167.34 231.169 159.161 240.227 153.027C240.641 152.741 241.055 152.462 241.477 152.199C249.695 146.868 258.939 143.319 268.614 141.781C269.103 141.698 269.6 141.622 270.104 141.562C283.492 139.708 297.131 141.722 309.412 147.366C309.872 147.569 310.323 147.787 310.767 148.006C319.13 152.079 326.599 157.775 332.74 164.762C333.071 165.138 333.403 165.522 333.719 165.906C341.351 174.939 346.501 185.804 348.661 197.431C348.751 197.92 348.834 198.41 348.909 198.914C351.095 212.409 349.154 226.249 343.339 238.621V238.621Z" fill="#CCCCCC"/>
<path d="M274.598 198.537L273.371 199.41L240.227 153.026L239.347 151.799L215.131 117.91C215.545 117.624 215.959 117.346 216.373 117.067L240.604 150.964L241.477 152.198L274.598 198.537Z" fill="#CCCCCC"/>
<path d="M268.673 204.537L267.943 205.861L217.652 178.236L216.327 177.505L179.57 157.309C179.804 156.865 180.052 156.421 180.293 155.984L217.05 176.173L218.367 176.903L268.673 204.537Z" fill="#CCCCCC"/>
<path d="M268.035 214.073L210.773 220.788L209.283 220.969L167.483 225.869C167.415 225.372 167.34 224.875 167.279 224.379L209.057 219.478L210.547 219.305L267.861 212.583L268.035 214.073Z" fill="#CCCCCC"/>
<path d="M271.729 219.132L229.869 257.921L228.763 258.945L198.111 287.346C197.764 286.992 197.418 286.631 197.064 286.27L227.716 257.868L228.815 256.845L270.706 218.025L271.729 219.132Z" fill="#CCCCCC"/>
<path d="M329.286 109.126L311.423 146.643H311.416L310.768 148.006L286.349 199.298L284.994 198.65L309.413 147.366L310.061 145.996L327.923 108.486C328.382 108.697 328.834 108.908 329.286 109.126Z" fill="#CCCCCC"/>
<path d="M367.171 138.378L334.885 164.942L333.719 165.906L289.585 202.218L288.629 201.059L332.74 164.761L333.899 163.805L366.192 137.233C366.523 137.61 366.854 137.994 367.171 138.378Z" fill="#CCCCCC"/>
<path d="M391.717 190.845L350.384 198.635L348.908 198.914L292.347 209.58L292.068 208.105L348.66 197.431L350.135 197.16V197.153L391.454 189.369C391.551 189.858 391.634 190.348 391.717 190.845Z" fill="#CCCCCC"/>
<path d="M382.94 256.574C382.729 257.026 382.511 257.477 382.293 257.929L344.053 240.601L342.683 239.976L291.037 216.573L291.662 215.203L343.338 238.621L344.708 239.246L382.94 256.574Z" fill="#CCCCCC"/>
<path d="M333.552 308.265C333.108 308.499 332.664 308.732 332.22 308.958L312.573 272.322L311.858 270.989L285.008 220.917L286.333 220.209L313.191 270.297L313.898 271.622H313.906L333.552 308.265Z" fill="#CCCCCC"/>
<path d="M277.646 222.128L268.184 277.681L267.928 279.171L260.965 320.015C260.469 319.932 259.972 319.85 259.482 319.759L266.438 278.908L266.694 277.425L276.156 221.872L277.646 222.128Z" fill="#CCCCCC"/>
<path d="M278.075 197.679L276.585 197.889L268.613 141.78L268.402 140.289L262.576 99.2645C263.073 99.1967 263.57 99.1215 264.067 99.0537L269.893 140.071L270.104 141.561L278.075 197.679Z" fill="#CCCCCC"/>
<path d="M279.83 223.852C287.728 223.852 294.132 217.547 294.132 209.768C294.132 201.99 287.728 195.685 279.83 195.685C271.931 195.685 265.527 201.99 265.527 209.768C265.527 217.547 271.931 223.852 279.83 223.852Z" fill="black"/>
<path d="M574.039 603.485L563.334 612.448L523.664 575.422L539.464 562.192L574.039 603.485Z" fill="#A0616A"/>
<path d="M583.769 614.336L550.849 641.901L550.5 641.485C547.655 638.087 546.276 633.697 546.667 629.283C547.057 624.868 549.186 620.789 552.584 617.943L552.585 617.942L554.778 608.345L569.817 603.513L572.691 601.106L583.769 614.336Z" fill="black"/>
<path d="M478.393 637.666L464.432 637.665L457.789 583.809L478.397 583.81L478.393 637.666Z" fill="#A0616A"/>
<path d="M478.886 652.232L435.949 652.23V651.687C435.95 647.255 437.71 643.005 440.844 639.87C443.979 636.736 448.229 634.976 452.661 634.975H452.662L460.505 629.025L475.138 634.976L478.887 634.977L478.886 652.232Z" fill="black"/>
<path d="M513.316 379.943C516.689 384.159 515.003 398.494 515.003 398.494L515.83 487.768C530.164 499.573 541.142 548.586 541.142 548.586L554.83 573.768C553.143 578.827 542.203 598.611 538.83 597.768C537.265 597.377 517.785 579.411 504.83 552.768C489.865 521.99 481.274 481.972 481.274 481.972C481.274 481.972 482.961 596.649 482.961 601.708C482.961 606.767 460.194 604.238 455.135 604.238C450.075 604.238 424.033 397.651 424.033 397.651V385.846L428.249 379.943C428.249 379.943 509.943 375.727 513.316 379.943Z" fill="#000724"/>
<path d="M332.055 189.333L321.83 194.105L333.226 191.719C333.226 191.719 341.599 192.06 341.599 188.652L355.233 181.153C355.233 181.153 366.822 187.288 370.23 183.88C373.639 180.471 367.504 173.654 367.504 173.654C367.504 173.654 371.61 171.389 371.261 170.477C370.912 169.564 365.458 170.928 365.458 170.928C365.458 170.928 352.506 163.429 353.188 176.381L339.554 185.42C339.554 185.42 332.737 185.243 332.055 189.333Z" fill="black"/>
<path d="M518 409.136C500.106 418.014 478.812 420.7 458.756 418.342C441.465 416.307 437.869 396.988 421.82 390.133C426.892 375.562 426.953 356.218 426.096 350.79C424.63 341.521 424.358 276.915 429.728 270.187C436.772 261.36 447.525 256.645 447.036 245.363L448.543 246.91C446.64 241.901 450.326 236.168 455.179 233.903C460.032 231.637 465.639 231.925 470.986 232.258C475.489 232.54 479.991 232.822 484.494 233.103C483.905 234.941 483.762 236.893 484.078 238.797C484.394 240.701 485.16 242.503 486.311 244.052C494.292 241.849 502.711 247.703 506.276 255.167C509.841 262.637 509.755 271.256 509.594 279.531C509.409 289.105 516.505 356.343 507.92 360.598C512.348 361.714 518.607 385.327 514.829 382.768C516.577 383.993 516.155 395.427 518 409.136Z" fill="#74A91B"/>
<path d="M344.06 178.206C345.989 177.639 348.02 177.501 350.008 177.804C351.996 178.106 353.894 178.841 355.568 179.956C357.241 181.071 358.65 182.54 359.695 184.259C360.739 185.977 361.394 187.904 361.614 189.903L437.54 256.661L423.83 265.769L348.471 205.319C345.088 205.465 341.769 204.365 339.143 202.228C336.517 200.09 334.766 197.064 334.223 193.722C333.679 190.38 334.38 186.954 336.193 184.095C338.006 181.235 340.805 179.14 344.06 178.206V178.206Z" fill="#A0616A"/>
<path d="M425.824 235.125C424.162 235.221 384.923 206.589 383.919 207.917L381.282 222.218L374.029 231.81L389.708 248.431L394.188 252.105L397.068 255.15C396.061 256.498 402.748 263.719 403.11 265.367C403.285 266.173 403.632 266.933 404.126 267.594C404.621 268.255 405.251 268.803 405.975 269.199L431.49 283.042C434.891 285.568 439.155 286.641 443.347 286.028C447.539 285.414 451.316 283.163 453.851 279.769C456.386 276.374 457.471 272.113 456.868 267.919C456.266 263.726 454.025 259.942 450.638 257.399L446.874 253.592L441.11 247.75L430.322 236.825C429.74 236.233 429.036 235.774 428.26 235.481C427.483 235.187 426.652 235.066 425.824 235.125V235.125Z" fill="#74A91B"/>
<path d="M468.152 224.697C483.437 224.697 495.829 212.306 495.829 197.02C495.829 181.734 483.437 169.343 468.152 169.343C452.866 169.343 440.475 181.734 440.475 197.02C440.475 212.306 452.866 224.697 468.152 224.697Z" fill="#A0616A"/>
<path d="M501.169 188.254C499.63 182.147 493.889 176.819 487.621 177.437C488.395 172.731 485.263 167.993 481.041 165.776C476.82 163.558 471.777 163.463 467.071 164.236C464.338 164.731 461.632 165.363 458.963 166.13C456.698 166.74 446.079 163.104 443.83 163.768C441.906 164.335 437.276 171.227 435.816 172.602C434.356 173.977 433.582 176.291 434.558 178.044C435.521 179.774 437.725 180.338 439.698 180.5C441.672 180.662 443.793 180.633 445.431 181.746C447.537 183.176 448.133 186.027 448.047 188.571C447.962 191.115 447.379 193.68 447.854 196.18C448.329 198.681 450.352 201.179 452.891 201.007C454.793 199.003 458.266 199.131 460.446 200.827C461.489 201.739 462.322 202.865 462.889 204.128C463.456 205.392 463.742 206.763 463.73 208.148C463.685 210.914 463.255 213.66 462.453 216.308C461.996 218.135 461.652 220.351 463.005 221.661C463.803 222.297 464.762 222.697 465.775 222.818C469.771 223.666 484.767 222.515 488.763 223.364L488.454 222.754C491.348 217.16 495.19 212.095 498.035 206.475C500.88 200.856 502.708 194.362 501.169 188.254Z" fill="black"/>
<path d="M543.652 416.84C541.696 416.372 539.867 415.48 538.293 414.229C536.719 412.977 535.438 411.395 534.542 409.595C533.645 407.794 533.154 405.82 533.103 403.809C533.053 401.799 533.443 399.801 534.248 397.958L501.617 302.268L518.041 301.191L553.32 391.128C556.327 392.685 558.658 395.291 559.872 398.451C561.086 401.612 561.098 405.109 559.906 408.278C558.715 411.448 556.402 414.07 553.406 415.648C550.41 417.226 546.94 417.65 543.652 416.84V416.84Z" fill="#A0616A"/>
<path d="M494.061 314.778C495.55 315.522 515.335 359.885 516.866 359.233L526.271 348.141L537.336 343.431L532.008 321.212L529.951 315.795L528.969 311.72C530.513 311.053 528.307 301.462 528.813 299.852C529.062 299.065 529.14 298.234 529.04 297.414C528.94 296.595 528.666 295.806 528.235 295.102L512.995 270.397C511.302 266.513 508.137 263.46 504.196 261.906C500.255 260.351 495.858 260.424 491.97 262.107C488.082 263.789 485.02 266.946 483.455 270.883C481.891 274.82 481.951 279.217 483.624 283.11L484.994 288.284L487.086 296.22L491.006 311.065C491.216 311.868 491.598 312.616 492.125 313.257C492.653 313.898 493.313 314.417 494.061 314.778V314.778Z" fill="#74A91B"/>
<path d="M620.32 636.396L612.61 624.006L611.07 631.086C610.8 632.326 610.53 633.586 610.28 634.836C608.09 632.966 605.76 631.236 603.48 629.576C596.48 624.496 589.484 619.41 582.49 614.316L584.68 627.016C586.03 634.836 587.44 642.816 590.78 649.966C591.15 650.776 591.55 651.576 591.98 652.356H624.52C624.782 651.632 624.963 650.881 625.06 650.116C625.069 650.067 625.072 650.017 625.07 649.966C625.581 645.116 622.9 640.546 620.32 636.396Z" fill="#F0F0F0"/>
<path d="M647.863 653.574L372.113 653.881C371.797 653.881 371.494 653.756 371.271 653.532C371.047 653.309 370.922 653.006 370.922 652.69C370.922 652.375 371.047 652.072 371.271 651.848C371.494 651.625 371.797 651.5 372.113 651.5L647.863 651.192C648.019 651.192 648.174 651.222 648.319 651.282C648.464 651.342 648.596 651.429 648.707 651.54C648.818 651.651 648.906 651.782 648.966 651.927C649.026 652.071 649.057 652.226 649.057 652.383C649.057 652.54 649.026 652.695 648.966 652.84C648.906 652.984 648.818 653.116 648.707 653.226C648.596 653.337 648.464 653.424 648.319 653.484C648.174 653.544 648.019 653.574 647.863 653.574Z" fill="#CACACA"/>
<path d="M249.4 445.924L241.69 433.534L240.15 440.614C239.88 441.854 239.61 443.114 239.36 444.364C237.17 442.494 234.84 440.764 232.561 439.104C225.561 434.024 218.564 428.937 211.57 423.844L213.76 436.544C215.11 444.364 216.521 452.344 219.86 459.494C220.23 460.304 220.63 461.104 221.061 461.884H253.601C253.862 461.159 254.043 460.408 254.141 459.644C254.149 459.594 254.152 459.544 254.15 459.494C254.661 454.644 251.98 450.074 249.4 445.924Z" fill="#F0F0F0"/>
<path d="M276.941 463.102L1.19113 463.409C0.87594 463.409 0.573992 463.283 0.35144 463.059C0.128889 462.836 0.00390625 462.534 0.00390625 462.219C0.00390625 461.904 0.128889 461.601 0.35144 461.378C0.573992 461.155 0.87594 461.029 1.19113 461.028L276.941 460.721C277.098 460.72 277.253 460.751 277.398 460.81C277.543 460.87 277.674 460.958 277.785 461.068C277.896 461.179 277.984 461.31 278.044 461.455C278.104 461.6 278.135 461.755 278.135 461.911C278.135 462.068 278.104 462.223 278.044 462.368C277.984 462.513 277.896 462.644 277.785 462.755C277.674 462.865 277.543 462.953 277.398 463.012C277.253 463.072 277.098 463.103 276.941 463.102V463.102Z" fill="#CACACA"/>
<path d="M149.405 233.203C148.107 232.781 146.917 232.079 145.919 231.147C144.921 230.216 144.139 229.077 143.629 227.81C143.119 226.544 142.892 225.181 142.966 223.817C143.039 222.454 143.411 221.123 144.054 219.919L118.836 148.38L121.361 124.579L131.65 117.919L142.035 151.19L157.328 216.32C159.279 217.535 160.717 219.424 161.369 221.628C162.021 223.833 161.842 226.199 160.865 228.28C159.889 230.361 158.183 232.012 156.071 232.919C153.958 233.826 151.587 233.927 149.405 233.203L149.405 233.203Z" fill="#694545"/>
<path d="M105.246 99.5455L129.097 90.3135L142.945 136.474L110.981 146.603L105.246 99.5455Z" fill="black"/>
</g>
<defs>
<clipPath id="clip0_506_139">
<rect width="649.053" height="653.881" fill="white"/>
</clipPath>
</defs>
</svg>
