<svg width="421" height="471" viewBox="0 0 421 471" fill="none" xmlns="http://www.w3.org/2000/svg">
<path d="M27.9655 407.838L3.09562 400.665C-0.561139 386.635 -0.985114 371.855 1.86054 357.608C12.7105 380.725 41.8503 385.084 59.1128 403.111C64.4569 408.778 68.5492 415.669 71.0867 423.272C73.6241 430.875 74.5416 438.997 73.7711 447.034L79.7287 465.637C67.6359 465.122 55.7906 461.787 45.0088 455.862C34.227 449.937 24.7651 441.563 17.2749 431.318C13.1258 425.525 9.66999 419.192 6.98905 412.469C17.3956 410.825 27.9655 407.838 27.9655 407.838Z" fill="#F2F2F2"/>
<path d="M336.944 470.865H93.1868C86.6542 470.857 80.3912 468.056 75.7719 463.077C71.1526 458.099 68.5543 451.348 68.5469 444.307V96.425C68.5543 89.3839 71.1526 82.6334 75.7719 77.6546C80.3912 72.6758 86.6542 69.8752 93.1869 69.8672H336.944C343.477 69.8751 349.74 72.6757 354.359 77.6546C358.979 82.6334 361.577 89.3838 361.584 96.425V444.307C361.577 451.348 358.979 458.099 354.359 463.078C349.74 468.056 343.477 470.857 336.944 470.865V470.865Z" fill="#E6E6E6"/>
<path d="M243.908 449.332H110.32C104.372 449.324 98.6693 446.774 94.4633 442.241C90.2573 437.707 87.8914 431.561 87.8848 425.149V115.582C87.8915 109.171 90.2573 103.024 94.4633 98.491C98.6694 93.9576 104.372 91.4076 110.32 91.4004H319.809C325.757 91.4076 331.46 93.9576 335.666 98.491C339.872 103.024 342.238 109.171 342.244 115.582V343.342C342.215 371.443 331.845 398.383 313.41 418.253C294.974 438.123 269.979 449.3 243.908 449.332Z" fill="white"/>
<path d="M298.911 150.832H131.218C130.5 150.833 129.788 150.682 129.125 150.386C128.461 150.091 127.857 149.658 127.349 149.111C126.84 148.564 126.437 147.915 126.161 147.2C125.885 146.485 125.743 145.719 125.742 144.945C125.741 144.171 125.882 143.404 126.156 142.689C126.43 141.973 126.832 141.323 127.339 140.775C127.846 140.227 128.449 139.792 129.112 139.494C129.775 139.197 130.486 139.044 131.204 139.043H298.911C300.361 139.041 301.753 139.66 302.78 140.764C303.807 141.868 304.385 143.367 304.387 144.93C304.389 146.494 303.814 147.994 302.79 149.101C301.765 150.207 300.375 150.83 298.925 150.832H298.911Z" fill="#010101"/>
<path d="M298.912 174.124H131.219C129.769 174.124 128.378 173.503 127.352 172.397C126.326 171.292 125.75 169.792 125.75 168.229C125.75 166.666 126.326 165.166 127.352 164.061C128.378 162.955 129.769 162.334 131.219 162.334H298.912C300.363 162.334 301.754 162.955 302.78 164.061C303.805 165.166 304.382 166.666 304.382 168.229C304.382 169.792 303.805 171.292 302.78 172.397C301.754 173.503 300.363 174.124 298.912 174.124V174.124Z" fill="black"/>
<path d="M203.91 197.417H131.219C129.769 197.417 128.378 196.796 127.352 195.69C126.326 194.585 125.75 193.085 125.75 191.522C125.75 189.958 126.326 188.459 127.352 187.354C128.378 186.248 129.769 185.627 131.219 185.627H203.91C205.361 185.627 206.752 186.248 207.778 187.354C208.803 188.459 209.379 189.958 209.379 191.522C209.379 193.085 208.803 194.585 207.778 195.69C206.752 196.796 205.361 197.417 203.91 197.417V197.417Z" fill="black"/>
<path d="M298.911 246.201H131.218C129.768 246.203 128.376 245.584 127.349 244.48C126.322 243.376 125.744 241.877 125.742 240.314C125.74 238.751 126.315 237.251 127.339 236.144C128.364 235.037 129.754 234.414 131.204 234.412H298.911C300.361 234.41 301.753 235.029 302.78 236.133C303.807 237.237 304.385 238.736 304.387 240.299C304.389 241.863 303.814 243.363 302.79 244.47C301.765 245.577 300.375 246.199 298.925 246.201H298.911Z" fill="#E4E4E4"/>
<path d="M298.912 269.494H131.219C129.769 269.494 128.378 268.873 127.352 267.767C126.326 266.662 125.75 265.162 125.75 263.599C125.75 262.036 126.326 260.536 127.352 259.431C128.378 258.325 129.769 257.704 131.219 257.704H298.912C300.363 257.704 301.754 258.325 302.78 259.431C303.805 260.536 304.382 262.036 304.382 263.599C304.382 265.162 303.805 266.662 302.78 267.767C301.754 268.873 300.363 269.494 298.912 269.494Z" fill="#E4E4E4"/>
<path d="M203.91 292.786H131.219C129.769 292.786 128.378 292.165 127.352 291.059C126.326 289.954 125.75 288.454 125.75 286.891C125.75 285.328 126.326 283.828 127.352 282.723C128.378 281.617 129.769 280.996 131.219 280.996H203.91C205.361 280.996 206.752 281.617 207.778 282.723C208.803 283.828 209.379 285.328 209.379 286.891C209.379 288.454 208.803 289.954 207.778 291.059C206.752 292.165 205.361 292.786 203.91 292.786V292.786Z" fill="#E4E4E4"/>
<path d="M298.911 341.57H131.218C129.768 341.571 128.376 340.952 127.349 339.848C126.322 338.744 125.744 337.246 125.742 335.682C125.74 334.119 126.315 332.619 127.339 331.512C128.364 330.405 129.754 329.782 131.204 329.78H298.911C300.361 329.778 301.753 330.397 302.78 331.502C303.807 332.606 304.385 334.104 304.387 335.668C304.389 337.231 303.814 338.731 302.79 339.838C301.765 340.945 300.375 341.568 298.925 341.57H298.911Z" fill="#E4E4E4"/>
<path d="M298.912 364.862H131.219C129.769 364.862 128.378 364.241 127.352 363.136C126.326 362.03 125.75 360.531 125.75 358.967C125.75 357.404 126.326 355.904 127.352 354.799C128.378 353.693 129.769 353.072 131.219 353.072H298.912C300.363 353.072 301.754 353.693 302.78 354.799C303.805 355.904 304.382 357.404 304.382 358.967C304.382 360.531 303.805 362.03 302.78 363.136C301.754 364.241 300.363 364.862 298.912 364.862V364.862Z" fill="#E4E4E4"/>
<path d="M203.909 388.156H131.219C129.77 388.153 128.381 387.531 127.358 386.426C126.335 385.32 125.76 383.823 125.76 382.261C125.76 380.7 126.335 379.202 127.358 378.097C128.381 376.992 129.77 376.369 131.219 376.366H203.909C205.358 376.369 206.747 376.992 207.77 378.097C208.793 379.202 209.368 380.7 209.368 382.261C209.368 383.823 208.793 385.32 207.77 386.426C206.747 387.531 205.358 388.153 203.909 388.156V388.156Z" fill="#E4E4E4"/>
<path d="M349.547 153.266C388.814 153.266 420.647 118.957 420.647 76.6332C420.647 34.3098 388.814 0 349.547 0C310.28 0 278.447 34.3098 278.447 76.6332C278.447 118.957 310.28 153.266 349.547 153.266Z" fill="#74A91B"/>
<path opacity="0.16" d="M349.547 142.65C331.559 142.647 314.241 135.295 301.083 122.075C287.925 108.856 279.906 90.7511 278.642 71.4111C278.527 73.1952 278.447 74.9898 278.447 76.8055C278.454 97.1249 285.948 116.609 299.281 130.975C312.614 145.34 330.695 153.41 349.547 153.41C368.399 153.41 386.48 145.34 399.813 130.975C413.146 116.609 420.64 97.1249 420.647 76.8055C420.647 74.9898 420.567 73.1952 420.452 71.4111C419.188 90.7511 411.169 108.856 398.011 122.075C384.853 135.295 367.535 142.647 349.547 142.65Z" fill="#231F20"/>
<path d="M349.547 114.081C347.186 114.078 344.923 113.066 343.254 111.267C341.584 109.468 340.645 107.028 340.643 104.484V48.9529C340.641 47.6917 340.871 46.4427 341.318 45.2772C341.765 44.1116 342.42 43.0524 343.247 42.1602C344.074 41.268 345.056 40.5601 346.137 40.0772C347.218 39.5943 348.377 39.3457 349.547 39.3457C350.717 39.3457 351.875 39.5943 352.956 40.0772C354.037 40.5601 355.019 41.268 355.846 42.1602C356.673 43.0524 357.329 44.1116 357.776 45.2772C358.223 46.4427 358.452 47.6917 358.451 48.9529V104.484C358.448 107.028 357.509 109.467 355.84 111.267C354.171 113.066 351.908 114.078 349.547 114.081V114.081Z" fill="white"/>
<path d="M314.883 76.7194C314.886 74.1749 315.825 71.7355 317.494 69.9363C319.163 68.1371 321.426 67.125 323.787 67.1221H375.308C376.478 67.1207 377.637 67.368 378.718 67.8497C379.8 68.3314 380.783 69.0381 381.61 69.9294C382.438 70.8207 383.095 71.8791 383.543 73.0441C383.991 74.2091 384.222 75.458 384.222 76.7191C384.222 77.9803 383.991 79.229 383.543 80.3941C383.095 81.5591 382.438 82.6175 381.61 83.5088C380.783 84.4001 379.8 85.1068 378.718 85.5885C377.637 86.0702 376.478 86.3175 375.308 86.3161H323.787C321.426 86.3133 319.163 85.3013 317.494 83.5022C315.825 81.7031 314.886 79.2638 314.883 76.7194V76.7194Z" fill="white"/>
</svg>
