<svg width="1094" height="760" viewBox="0 0 1094 760" fill="none" xmlns="http://www.w3.org/2000/svg">
<path opacity="0.1" d="M278.3 304.52H162.43C158.327 304.52 155 307.846 155 311.95V336.61C155 340.713 158.327 344.04 162.43 344.04H278.3C282.403 344.04 285.73 340.713 285.73 336.61V311.95C285.73 307.846 282.403 304.52 278.3 304.52Z" fill="#006837"/>
<path opacity="0.1" d="M415.111 344.05H299.241C295.137 344.05 291.811 347.376 291.811 351.48V376.14C291.811 380.243 295.137 383.57 299.241 383.57H415.111C419.214 383.57 422.541 380.243 422.541 376.14V351.48C422.541 347.376 419.214 344.05 415.111 344.05Z" fill="#006837"/>
<path opacity="0.1" d="M551.931 383.57H436.061C431.957 383.57 428.631 386.897 428.631 391V415.66C428.631 419.764 431.957 423.09 436.061 423.09H551.931C556.034 423.09 559.361 419.764 559.361 415.66V391C559.361 386.897 556.034 383.57 551.931 383.57Z" fill="#006837"/>
<path opacity="0.1" d="M278.3 245.24H162.43C158.327 245.24 155 248.567 155 252.67V277.33C155 281.434 158.327 284.76 162.43 284.76H278.3C282.403 284.76 285.73 281.434 285.73 277.33V252.67C285.73 248.567 282.403 245.24 278.3 245.24Z" fill="#006837"/>
<path opacity="0.1" d="M415.111 284.76H299.241C295.137 284.76 291.811 288.086 291.811 292.19V316.85C291.811 320.953 295.137 324.28 299.241 324.28H415.111C419.214 324.28 422.541 320.953 422.541 316.85V292.19C422.541 288.086 419.214 284.76 415.111 284.76Z" fill="#006837"/>
<path opacity="0.1" d="M551.931 324.29H436.061C431.957 324.29 428.631 327.617 428.631 331.72V356.38C428.631 360.484 431.957 363.81 436.061 363.81H551.931C556.034 363.81 559.361 360.484 559.361 356.38V331.72C559.361 327.617 556.034 324.29 551.931 324.29Z" fill="#006837"/>
<path opacity="0.1" d="M703.941 304.52H588.071C583.967 304.52 580.641 307.846 580.641 311.95V336.61C580.641 340.713 583.967 344.04 588.071 344.04H703.941C708.044 344.04 711.371 340.713 711.371 336.61V311.95C711.371 307.846 708.044 304.52 703.941 304.52Z" fill="#006837"/>
<path opacity="0.1" d="M840.749 344.05H724.879C720.776 344.05 717.449 347.376 717.449 351.48V376.14C717.449 380.243 720.776 383.57 724.879 383.57H840.749C844.853 383.57 848.179 380.243 848.179 376.14V351.48C848.179 347.376 844.853 344.05 840.749 344.05Z" fill="#006837"/>
<path opacity="0.1" d="M977.57 383.57H861.7C857.596 383.57 854.27 386.897 854.27 391V415.66C854.27 419.764 857.596 423.09 861.7 423.09H977.57C981.673 423.09 985 419.764 985 415.66V391C985 386.897 981.673 383.57 977.57 383.57Z" fill="#006837"/>
<path opacity="0.1" d="M703.941 245.24H588.071C583.967 245.24 580.641 248.567 580.641 252.67V277.33C580.641 281.434 583.967 284.76 588.071 284.76H703.941C708.044 284.76 711.371 281.434 711.371 277.33V252.67C711.371 248.567 708.044 245.24 703.941 245.24Z" fill="#006837"/>
<path opacity="0.1" d="M840.749 284.76H724.879C720.776 284.76 717.449 288.086 717.449 292.19V316.85C717.449 320.953 720.776 324.28 724.879 324.28H840.749C844.853 324.28 848.179 320.953 848.179 316.85V292.19C848.179 288.086 844.853 284.76 840.749 284.76Z" fill="#006837"/>
<path opacity="0.1" d="M977.57 324.29H861.7C857.596 324.29 854.27 327.617 854.27 331.72V356.38C854.27 360.484 857.596 363.81 861.7 363.81H977.57C981.673 363.81 985 360.484 985 356.38V331.72C985 327.617 981.673 324.29 977.57 324.29Z" fill="#006837"/>
<path opacity="0.1" d="M278.3 166.19H162.43C158.327 166.19 155 169.517 155 173.62V198.28C155 202.384 158.327 205.71 162.43 205.71H278.3C282.403 205.71 285.73 202.384 285.73 198.28V173.62C285.73 169.517 282.403 166.19 278.3 166.19Z" fill="#006837"/>
<path opacity="0.1" d="M415.111 205.71H299.241C295.137 205.71 291.811 209.036 291.811 213.14V237.8C291.811 241.903 295.137 245.23 299.241 245.23H415.111C419.214 245.23 422.541 241.903 422.541 237.8V213.14C422.541 209.036 419.214 205.71 415.111 205.71Z" fill="#006837"/>
<path opacity="0.1" d="M551.931 245.24H436.061C431.957 245.24 428.631 248.567 428.631 252.67V277.33C428.631 281.434 431.957 284.76 436.061 284.76H551.931C556.034 284.76 559.361 281.434 559.361 277.33V252.67C559.361 248.567 556.034 245.24 551.931 245.24Z" fill="#006837"/>
<path opacity="0.1" d="M278.3 106.9H162.43C158.327 106.9 155 110.227 155 114.33V138.99C155 143.094 158.327 146.42 162.43 146.42H278.3C282.403 146.42 285.73 143.094 285.73 138.99V114.33C285.73 110.227 282.403 106.9 278.3 106.9Z" fill="#006837"/>
<path opacity="0.1" d="M415.111 146.43H299.241C295.137 146.43 291.811 149.756 291.811 153.86V178.52C291.811 182.623 295.137 185.95 299.241 185.95H415.111C419.214 185.95 422.541 182.623 422.541 178.52V153.86C422.541 149.756 419.214 146.43 415.111 146.43Z" fill="#006837"/>
<path opacity="0.1" d="M551.931 185.95H436.061C431.957 185.95 428.631 189.277 428.631 193.38V218.04C428.631 222.144 431.957 225.47 436.061 225.47H551.931C556.034 225.47 559.361 222.144 559.361 218.04V193.38C559.361 189.277 556.034 185.95 551.931 185.95Z" fill="#006837"/>
<path opacity="0.1" d="M703.941 166.19H588.071C583.967 166.19 580.641 169.517 580.641 173.62V198.28C580.641 202.384 583.967 205.71 588.071 205.71H703.941C708.044 205.71 711.371 202.384 711.371 198.28V173.62C711.371 169.517 708.044 166.19 703.941 166.19Z" fill="#006837"/>
<path opacity="0.1" d="M840.749 205.71H724.879C720.776 205.71 717.449 209.036 717.449 213.14V237.8C717.449 241.903 720.776 245.23 724.879 245.23H840.749C844.853 245.23 848.179 241.903 848.179 237.8V213.14C848.179 209.036 844.853 205.71 840.749 205.71Z" fill="#006837"/>
<path opacity="0.1" d="M977.57 245.24H861.7C857.596 245.24 854.27 248.567 854.27 252.67V277.33C854.27 281.434 857.596 284.76 861.7 284.76H977.57C981.673 284.76 985 281.434 985 277.33V252.67C985 248.567 981.673 245.24 977.57 245.24Z" fill="#006837"/>
<path opacity="0.1" d="M703.941 106.9H588.071C583.967 106.9 580.641 110.227 580.641 114.33V138.99C580.641 143.094 583.967 146.42 588.071 146.42H703.941C708.044 146.42 711.371 143.094 711.371 138.99V114.33C711.371 110.227 708.044 106.9 703.941 106.9Z" fill="#006837"/>
<path opacity="0.1" d="M840.749 146.43H724.879C720.776 146.43 717.449 149.756 717.449 153.86V178.52C717.449 182.623 720.776 185.95 724.879 185.95H840.749C844.853 185.95 848.179 182.623 848.179 178.52V153.86C848.179 149.756 844.853 146.43 840.749 146.43Z" fill="#006837"/>
<path opacity="0.1" d="M977.57 185.95H861.7C857.596 185.95 854.27 189.277 854.27 193.38V218.04C854.27 222.144 857.596 225.47 861.7 225.47H977.57C981.673 225.47 985 222.144 985 218.04V193.38C985 189.277 981.673 185.95 977.57 185.95Z" fill="#006837"/>
<path opacity="0.1" d="M547 760C849.1 760 1094 715.452 1094 660.5C1094 605.548 849.1 561 547 561C244.9 561 0 605.548 0 660.5C0 715.452 244.9 760 547 760Z" fill="#006837"/>
<path d="M240 321L194 603L402 581L393 557L230.5 570.5L268.5 320.5L240 321Z" fill="black"/>
<path d="M186 1L466 0L547 613L266 651L186 1Z" fill="black"/>
<path d="M216.5 24.5H442.5L521.5 594.5L288.5 626.5L216.5 24.5Z" fill="white"/>
<path d="M429.64 568.86C431.06 571.58 432.12 574.52 433.97 576.97C439.37 584.19 449.62 585.32 457.31 590.03C457.694 590.226 458.011 590.532 458.22 590.91C458.57 591.74 457.79 592.61 457.04 593.13C451.21 597.22 443.56 597.31 436.43 597.26C434.033 597.345 431.636 597.117 429.3 596.58C425.53 595.58 422.3 592.95 418.58 591.88C416.651 591.398 414.676 591.12 412.69 591.05L404.88 590.52C402.8 590.49 400.741 590.108 398.79 589.39C397.817 589.018 396.955 588.406 396.283 587.61C395.612 586.814 395.153 585.861 394.95 584.84C394.73 583.18 395.44 581.57 395.86 579.95C396.86 576.11 396.55 571.47 399.54 568.85C400.772 567.907 402.184 567.226 403.69 566.85C409.125 565.019 414.673 563.542 420.3 562.43C424.93 561.52 427.59 564.92 429.64 568.86Z" fill="black"/>
<path d="M341.301 590.49C341.501 592.62 341.561 595.06 340.021 596.55C339.062 597.346 337.903 597.865 336.671 598.05C329.281 599.77 321.041 599.89 314.611 595.87C313.942 595.488 313.351 594.982 312.871 594.38C312.335 593.559 312.03 592.609 311.991 591.63C311.761 588.8 312.631 586.01 313.421 583.28C315.29 576.802 316.71 570.203 317.671 563.53C317.751 562.98 336.541 566.53 337.791 568.39C339.361 570.69 339.371 576.21 339.791 578.95C340.424 582.777 340.927 586.623 341.301 590.49Z" fill="black"/>
<path d="M411.241 330.27L416.241 376.76C417.241 386.26 418.291 395.81 417.601 405.34C416.801 416.34 413.721 427.34 415.021 438.24C415.531 442.48 416.691 446.64 416.861 450.91C416.892 453.749 416.749 456.588 416.431 459.41C414.171 487.62 421.321 515.61 425.321 543.62C425.964 547.075 426.105 550.604 425.741 554.1C425.221 557.65 424.181 562.31 427.341 563.99L397.661 574.75C393.871 570 396.381 562.61 395.661 556.58C395.001 551.15 392.021 546.31 390.431 541.08C388.991 536.38 388.691 531.43 388.221 526.55C385.631 499.98 377.681 474.1 375.821 447.47C375.761 444.898 375.426 442.34 374.821 439.84C373.821 436.53 371.821 433.64 370.361 430.53C368.121 425.86 367.021 420.74 365.941 415.68L359.591 385.93C353.171 395.49 353.431 407.93 352.161 419.39C350.381 435.39 346.401 451.12 343.161 466.92C342.408 470.319 341.844 473.758 341.471 477.22C340.631 486.49 342.301 495.85 341.411 505.11C340.411 515.84 335.901 526.31 336.991 537.04C337.591 542.98 339.871 548.6 341.411 554.36C342.951 560.12 343.711 566.44 341.361 571.93C333.147 568.914 324.324 567.94 315.651 569.09C306.121 559.34 304.431 545.74 303.781 532.09C303.131 518.44 304.701 504.77 303.001 491.25C302.501 487.25 301.721 483.35 301.591 479.36C301.171 466.57 307.321 454.6 310.381 442.17C313.135 430.98 313.397 419.322 311.151 408.02C309.651 400.55 307.071 393.3 306.151 385.73C304.901 375.12 307.021 364.43 309.151 353.95C310.581 346.88 312.001 339.81 313.621 332.78C315.361 325.23 317.431 317.52 322.081 311.34C329.521 301.45 342.731 297.06 355.081 298.02C367.431 298.98 378.961 304.6 389.161 311.6C397.2 316.972 404.607 323.235 411.241 330.27Z" fill="black"/>
<path d="M378.06 152.25C377.499 153.151 377.11 154.147 376.91 155.19C376.66 157.24 377.91 159.12 378.91 160.91C380.192 163.21 381.176 165.662 381.84 168.21C382.316 169.786 382.463 171.444 382.27 173.08C382.026 174.308 381.587 175.49 380.97 176.58C379.04 180.3 376.18 183.74 372.29 185.29C369.278 186.399 365.993 186.532 362.9 185.67C359.829 184.8 356.925 183.421 354.31 181.59C352.107 180.193 350.124 178.474 348.43 176.49C346.813 174.32 345.45 171.971 344.37 169.49C342.29 165.14 340.18 160.49 340.56 155.72C340.58 155.287 340.661 154.86 340.8 154.45C341.125 153.709 341.579 153.032 342.14 152.45C346.407 147.394 348.594 140.907 348.26 134.3L362.83 137.61C366.04 138.34 369.25 139.07 372.42 139.98C375.02 140.73 379.02 141.77 380.71 144.09C382.4 146.41 379.21 150.13 378.06 152.25Z" fill="#1D0700"/>
<path d="M370.259 149.77C384.884 149.77 396.739 137.914 396.739 123.29C396.739 108.665 384.884 96.8096 370.259 96.8096C355.635 96.8096 343.779 108.665 343.779 123.29C343.779 137.914 355.635 149.77 370.259 149.77Z" fill="#1D0700"/>
<path d="M365.999 176.71C367.119 174.26 369.539 172.71 371.749 171.17C373.959 169.63 376.199 167.66 376.629 164.99C376.656 164.386 376.805 163.793 377.069 163.25C377.919 161.97 379.939 162.61 381.149 163.55C384.089 165.84 386.089 169.09 388.039 172.26C390.562 176.115 392.721 180.195 394.489 184.45C397.299 191.86 397.639 199.95 397.949 207.86C398.229 215.06 398.499 222.37 396.749 229.35C395.649 233.77 393.749 238.06 393.639 242.61C393.309 259.14 387.569 274.94 387.169 291.47C387.139 296.249 387.38 301.027 387.889 305.78L388.829 316.51C374.289 315.676 359.789 314.4 345.329 312.68C344.909 307.74 343.499 302.95 342.209 298.17C336.927 278.627 333.541 258.622 332.099 238.43C331.329 227.71 330.539 217.03 329.349 206.35C328.279 196.64 326.179 186.87 327.439 177.18C328.099 172.775 329.484 168.511 331.539 164.56C332.189 162.986 333.306 161.649 334.739 160.73C335.455 160.383 336.216 160.138 336.999 160C339.266 159.54 341.568 159.269 343.879 159.19C344.444 159.142 345.013 159.196 345.559 159.35C346.534 159.835 347.334 160.611 347.849 161.57C352.305 168.268 358.61 173.528 365.999 176.71V176.71Z" fill="#F2F2F2"/>
<path d="M353.721 174.59C355.581 177.25 359.521 177.88 361.241 180.59C361.82 181.722 362.26 182.921 362.551 184.16C363.601 187.51 365.721 190.42 367.011 193.69C368.871 198.39 368.921 203.59 368.941 208.64C369.124 212.662 368.815 216.692 368.021 220.64C367.421 223.11 366.441 225.46 365.721 227.9C364.498 232.049 364.044 236.387 364.381 240.7C364.381 241.631 364.629 242.546 365.101 243.35C365.779 244.153 366.664 244.754 367.661 245.09C370.591 246.38 373.661 247.7 376.861 247.4C377.517 247.379 378.153 247.167 378.691 246.79C379.061 246.452 379.367 246.048 379.591 245.6L381.591 242.22C383.401 239.13 385.291 235.67 384.591 232.14C384.082 230.318 383.318 228.577 382.321 226.97C381.043 224.361 379.953 221.664 379.061 218.9C375.871 209.73 372.641 200.43 371.921 190.75C371.497 187.066 371.907 183.334 373.121 179.83C374.06 177.673 375.241 175.63 376.641 173.74C376.324 173.315 375.886 172.996 375.384 172.827C374.882 172.657 374.34 172.644 373.831 172.79C372.825 173.1 371.85 173.506 370.921 174C367.981 175.24 364.721 174.79 361.751 173.94C360.591 173.6 358.751 172.44 357.551 172.52C357.141 172.57 353.791 174.71 353.721 174.59Z" fill="#006837"/>
<path d="M377.129 174.48C376.529 174 375.599 173.56 375.069 174.12C374.891 174.363 374.762 174.638 374.689 174.93C374.169 176.33 372.639 177.02 371.249 177.56C369.859 178.1 368.359 178.4 367.519 177.37C367.254 176.969 367.124 176.494 367.147 176.014C367.171 175.533 367.346 175.073 367.649 174.7C368.264 173.959 369.006 173.332 369.839 172.85C374.439 169.603 377.573 164.673 378.559 159.13C379.849 160.155 380.703 161.631 380.949 163.26C381.279 164.85 381.319 166.49 381.649 168.08C382.139 170.36 383.229 172.49 383.479 174.8C383.609 176.03 383.479 177.27 383.479 178.5C383.524 179.702 383.665 180.9 383.899 182.08C381.559 179.6 379.909 176.69 377.129 174.48Z" fill="#F2F2F2"/>
<path d="M356.89 167.69C355.89 166.74 354.89 165.84 353.89 164.87C349.502 160.587 346.188 155.327 344.22 149.52C342.94 150.52 341.53 151.84 341.5 153.52C341.614 154.708 342.073 155.838 342.82 156.77C346.602 162.725 349.098 169.404 350.15 176.38C350.69 175.536 351.439 174.845 352.323 174.374C353.207 173.903 354.198 173.667 355.2 173.69C356.78 173.69 363.87 177.89 364.38 176.83C365.13 175.17 358.09 168.82 356.89 167.69Z" fill="#F2F2F2"/>
<path d="M379.22 159.73C388.626 169.094 400.142 176.065 412.8 180.06C414.058 180.334 415.225 180.926 416.19 181.78C416.91 182.68 417.395 183.745 417.6 184.88C420.04 194.42 420.86 204.29 421.67 214.1C421.882 215.722 421.848 217.367 421.57 218.98C420.98 221.6 419.12 223.72 417.29 225.69C411.55 231.84 405 238.27 404.03 246.63C403.956 248.241 403.765 249.845 403.46 251.43C402.96 253.29 401.85 254.93 401.17 256.74C397.83 265.65 405.38 276.44 400.78 284.74C403.27 289.524 404.978 294.676 405.84 300C405.994 302.018 406.456 304.001 407.21 305.88C408.58 308.74 411.4 310.56 413.62 312.88C420.39 319.82 421.22 330.44 421.62 340.13C421.87 345.59 421.79 351.86 417.62 355.44C415.21 357.53 411.92 358.21 408.77 358.73C404.58 359.43 400.02 359.93 396.31 357.86C393.65 356.38 391.84 353.79 390.11 351.29C386.83 346.52 383.54 341.76 380.43 336.87C375.51 329.16 370.87 320.35 372.29 311.31C371.89 320.56 369.94 329.88 365.4 337.94C360.86 346 353.55 352.73 344.68 355.39C335.81 358.05 325.44 356.17 318.83 349.69C316.672 347.468 314.819 344.97 313.32 342.26C309.557 335.816 306.811 328.831 305.18 321.55C304.75 319.66 304.43 317.55 305.38 315.86C305.83 315.06 306.52 314.43 306.99 313.64C308.57 310.95 307.05 307.56 305.52 304.82C303.19 305.04 301.52 302.3 301.73 299.96C301.94 297.62 303.34 295.59 304.33 293.46C307.23 287.18 306.59 279.87 305.19 273.1C303.79 266.33 301.7 259.6 301.86 252.69C302.03 245.38 296.77 238.8 292.76 232.69C290.52 229.25 287.91 226.05 285.96 222.44C281.894 214.843 280.954 205.959 283.34 197.68C284.74 193.428 286.576 189.333 288.82 185.46L292.12 179.27C292.734 177.791 293.688 176.477 294.904 175.435C296.12 174.392 297.564 173.651 299.12 173.27L321.95 164.27C324.869 163.273 327.641 161.887 330.19 160.15C332.98 158.05 335.06 155.15 337.72 152.91C338.107 152.502 338.572 152.177 339.088 151.952C339.603 151.727 340.158 151.607 340.72 151.6C342.86 151.79 343.62 154.49 343.84 156.6C344.34 161.32 347.84 165.32 349.03 169.91C355.47 195.26 369.1 218.64 372.84 244.52C377.04 234.43 381.24 224.32 386.62 214.82C387.468 213.456 388.182 212.012 388.75 210.51C389.396 208.342 389.636 206.074 389.46 203.82C389.19 197.31 387.46 190.95 385.75 184.66C383.53 176.1 381.53 168.21 379.22 159.73Z" fill="black"/>
<path d="M422.73 237.19C423.17 241.45 423.6 245.72 424.39 249.93C425.31 254.8 426.71 259.56 428.1 264.32C428.779 266.996 429.751 269.588 431 272.05C431.453 272.765 431.812 273.534 432.07 274.34C432.56 276.34 431.44 278.34 430.96 280.34C429.52 286.34 433.84 293.01 431.12 298.54C430.3 300.22 428.87 301.61 428.33 303.41C427.7 305.48 428.33 307.69 428.66 309.83C429.51 315.83 427.46 321.93 425.44 327.7L422 337.44C418.86 331.6 415.69 325.7 411.35 320.69C409.8 318.89 408.11 317.22 406.68 315.32C404.548 312.334 402.863 309.053 401.68 305.58C398.627 297.329 396.883 288.651 396.51 279.86C396.262 277.361 396.552 274.838 397.36 272.46C398.022 271.085 398.763 269.749 399.58 268.46C402.26 263.63 402.81 257.91 402.76 252.39C402.71 246.87 402.12 241.33 402.76 235.84C403.282 231.256 404.638 226.807 406.76 222.71C408.012 220.058 409.872 217.738 412.19 215.94C413.92 214.645 416.029 213.96 418.19 213.99C421.46 214.18 420.71 216.99 420.99 219.7L422.73 237.19Z" fill="black"/>
<path d="M275.64 223.58C273.6 229.58 271.76 235.633 270.12 241.74C268.52 247.74 267.09 253.773 265.83 259.84C265.183 262.508 264.821 265.236 264.75 267.98C264.878 271.175 265.426 274.339 266.38 277.39C272.82 300.6 284.56 322.01 297.78 342.14C301.558 337.429 306.044 333.333 311.08 330C311.492 329.756 311.836 329.412 312.08 329C312.207 328.611 312.244 328.199 312.188 327.793C312.133 327.388 311.986 327.001 311.76 326.66C308.11 319.18 302.33 312.59 300.51 304.46C299.75 301.08 299.72 297.56 298.86 294.2C297.75 289.85 295.27 285.87 294.7 281.41C294.09 276.55 295.7 271.25 293.42 266.94C298.07 265.13 300.76 260.34 302.73 255.75C304.835 251.054 306.34 246.112 307.21 241.04C308.579 231.316 306.676 221.414 301.8 212.89C299.418 208.638 296.362 204.802 292.75 201.53C291.56 200.46 288.75 197.39 287.02 197.42C284.71 197.47 283.97 201.21 283.31 202.89C280.64 209.75 278 216.62 275.64 223.58Z" fill="black"/>
<path d="M317.061 335.51C317.361 335.73 317.701 336.03 317.621 336.39C317.541 336.75 317.251 336.84 316.991 336.99C315.639 337.949 314.63 339.316 314.111 340.89C312.449 344.635 311 348.471 309.771 352.38C307.533 349.027 304.901 345.955 301.931 343.23C299.651 341.13 297.101 339.14 295.881 336.3C295.881 336.22 301.121 332.35 301.601 331.93C303.071 330.62 304.921 326.99 306.441 326.19C308.161 325.29 309.801 328.82 311.111 330.24C312.913 332.191 314.906 333.957 317.061 335.51V335.51Z" fill="#1D0700"/>
<path d="M398.38 119.15C398.31 117.84 398.14 116.39 397.14 115.54C396.263 114.933 395.205 114.64 394.14 114.71C388.31 114.52 382.28 115.5 376.78 113.54C373.16 112.25 370.07 109.77 366.54 108.23C363.01 106.69 358.49 106.28 355.64 108.87C353.48 110.87 352.89 113.94 352.14 116.77C350.489 123.016 347.55 128.847 343.51 133.89C340.8 133.05 338.86 130.63 337.61 128.09C333.36 119.43 335.45 109.09 338.47 99.9097C339.47 96.8297 340.58 93.7797 341.69 90.7397L344.13 84.0197C347.333 83.7052 350.308 82.2247 352.49 79.8597L353.54 82.4097C356.252 82.3122 358.869 81.3875 361.04 79.7597C361.88 81.3397 364.04 81.7597 365.79 81.2497C367.54 80.7397 369.05 79.7597 370.79 79.2497C375.44 77.7497 380.4 80.0597 385.28 80.3197C387.345 80.2695 389.412 80.3295 391.47 80.4997C397.23 81.4297 401.3 86.8497 403.06 92.4097C404.23 96.1097 405.2 100.66 408.85 101.97C408.93 103.37 406.45 103.64 406.24 104.97C406.216 105.413 406.32 105.854 406.54 106.24L409.89 113.43C408.289 113.832 406.604 113.748 405.05 113.19C403.54 116.74 398.53 121.86 398.38 119.15Z" fill="black"/>
<path d="M568.139 134.8C569.837 140.283 571.173 145.872 572.139 151.53C572.859 155.77 573.279 160.48 570.849 164.02C580.109 150.09 589.779 135.74 603.849 126.75C600.984 123.643 598.804 119.969 597.452 115.965C596.1 111.961 595.605 107.717 595.999 103.51C596.079 102.67 584.449 107.06 583.559 107.56C579.479 109.83 575.739 112.65 571.759 115.08C569.699 116.33 561.119 119.29 561.039 121.08C561.039 122.23 564.449 125.75 565.089 126.96C566.345 129.474 567.366 132.098 568.139 134.8Z" fill="#1D0700"/>
<path d="M611.169 660.18C608.883 658.569 606.204 657.608 603.415 657.396C600.626 657.185 597.832 657.732 595.33 658.98C590.8 661.32 587.75 665.75 583.63 668.75C576.55 673.89 567.199 674.3 558.909 677.08C556.709 677.82 554.37 678.92 553.44 681.08C553.128 681.988 553.003 682.949 553.074 683.907C553.144 684.864 553.408 685.797 553.849 686.65C555.235 689.739 557.664 692.242 560.71 693.72C564.43 695.5 568.71 695.58 572.83 695.63L608.63 696.05C619.63 696.18 630.7 696.31 641.63 697.68C644.18 698 646.94 698.35 649.19 697.1C652.85 695.1 653.269 690.04 652.989 685.87C652.252 675.305 649.891 664.916 645.989 655.07C645.559 653.98 644.99 652.74 643.78 652.54C642.921 652.501 642.077 652.771 641.4 653.3C631.3 659.3 618.51 662.69 607.77 657.89" fill="white"/>
<path d="M629.089 431.78C625.089 455.01 627.699 478.88 632.199 502.01C633.028 506.616 634.119 511.17 635.469 515.65C637.079 520.75 639.249 525.65 640.759 530.78C644.599 543.78 644.059 557.68 643.489 571.25L640.869 633C640.649 638.18 640.449 643.48 642.009 648.42C642.639 650.42 643.409 652.92 641.819 654.27C641.197 654.717 640.47 654.996 639.709 655.08C632.554 656.399 625.163 655.29 618.709 651.93L617.999 589.55C617.779 570.32 617.549 551.01 614.589 532.02C612.239 516.92 608.159 502.02 607.889 486.74C607.609 470.74 611.529 454.95 615.529 439.44C616.389 436.12 619.529 433.69 622.109 431.44C623.01 430.552 624.106 429.888 625.309 429.5C626.509 429.17 628.349 430.77 629.089 431.78Z" fill="black"/>
<path opacity="0.1" d="M629.089 431.78C625.089 455.01 627.699 478.88 632.199 502.01C633.028 506.616 634.119 511.17 635.469 515.65C637.079 520.75 639.249 525.65 640.759 530.78C644.599 543.78 644.059 557.68 643.489 571.25L640.869 633C640.649 638.18 640.449 643.48 642.009 648.42C642.639 650.42 643.409 652.92 641.819 654.27C641.197 654.717 640.47 654.996 639.709 655.08C632.554 656.399 625.163 655.29 618.709 651.93L617.999 589.55C617.779 570.32 617.549 551.01 614.589 532.02C612.239 516.92 608.159 502.02 607.889 486.74C607.609 470.74 611.529 454.95 615.529 439.44C616.389 436.12 619.529 433.69 622.109 431.44C623.01 430.552 624.106 429.888 625.309 429.5C626.509 429.17 628.349 430.77 629.089 431.78Z" fill="black"/>
<path d="M554.001 359.18C552.521 365.27 555.661 371.58 555.311 377.84C555.111 381.63 553.621 385.41 554.311 389.13C555.001 392.85 557.661 395.65 559.081 399.06C560.116 401.908 560.664 404.91 560.701 407.94C561.111 415.42 560.781 422.94 560.501 430.39C560.031 442.89 559.681 455.46 561.331 467.85C562.767 478.584 565.685 489.067 570.001 499C571.309 501.702 572.389 504.508 573.23 507.39C573.783 510.075 574.151 512.795 574.331 515.53C575.281 524.426 577.669 533.109 581.401 541.24C583.951 546.81 588.401 551.24 589.811 557.15C591.151 562.81 590.25 568.78 591.22 574.51C591.93 578.76 593.661 582.78 594.621 586.98C595.871 592.41 595.84 598.04 596.47 603.58C598.27 619.58 605.541 635.58 601.201 651.1C600.331 654.22 598.981 657.39 599.591 660.57C599.891 662.13 600.651 663.67 600.311 665.22C600.031 666.54 599.011 667.56 598.491 668.81C597.491 671.15 598.551 673.93 600.331 675.74C602.229 677.427 604.436 678.731 606.831 679.58C614.201 682.73 621.831 685.93 629.831 685.86C630.802 685.912 631.771 685.733 632.66 685.34C634.1 684.59 634.811 682.96 635.421 681.46L639.521 671.32C640.021 670.09 640.521 668.65 639.831 667.51C639.35 666.885 638.769 666.344 638.111 665.91C634.801 663.12 635.551 657.91 636.431 653.72C638.678 642.958 639.924 632.011 640.151 621.02C640.591 599.1 636.981 577.31 633.381 555.68C632.131 548.17 630.871 540.61 628.381 533.41C625.891 526.21 622.221 519.28 622.821 511.8C623.461 503.72 621.361 495.25 622.821 487.28C624.281 479.31 626.591 471.51 628.081 463.55C630.011 453.22 630.491 442.69 631.081 432.21C631.331 427.93 631.651 423.51 633.651 419.71C634.821 417.49 636.521 415.59 637.831 413.44C641.211 407.85 641.75 400.92 644.98 395.24C646.51 392.55 648.621 390.18 649.741 387.3C650.527 385.028 650.939 382.644 650.961 380.24C651.277 374.205 650.942 368.153 649.961 362.19C632.937 353.528 614.059 349.148 594.961 349.43C587.651 349.55 580.261 350.29 573.401 352.82C566.861 355.25 560.901 358.66 554.001 359.18Z" fill="black"/>
<path d="M595.001 676C592.061 679.66 592.261 684.89 590.381 689.2C588.101 694.43 583.021 697.78 578.201 700.83L548.201 719.83C546.561 720.83 544.801 722.06 544.201 723.92C543.916 725.107 543.968 726.35 544.351 727.51C545.067 730.019 546.402 732.308 548.233 734.167C550.064 736.026 552.333 737.396 554.831 738.15C557.486 738.782 560.213 739.061 562.941 738.98L576.431 739.16C580.54 739.32 584.656 739.16 588.741 738.68C592.481 738.14 596.121 737.07 599.841 736.39C606.611 735.16 613.571 735.27 620.351 734.08C624.502 733.263 628.603 732.205 632.631 730.91C637.531 729.44 642.521 727.91 646.721 725C647.877 724.296 648.815 723.285 649.431 722.08C650.141 720.43 649.751 718.54 649.351 716.79L642.911 688.49C642.547 686.133 641.689 683.88 640.391 681.88C638.961 679.98 636.391 678.72 634.161 679.53C633.241 679.949 632.372 680.472 631.571 681.09C628.271 683.26 624.041 683.62 620.141 682.94C617.621 682.49 614.291 681.8 612.261 680.13C610.721 678.86 610.261 676.89 608.951 675.45C608.032 674.506 606.926 673.767 605.703 673.279C604.48 672.791 603.169 672.566 601.853 672.618C600.538 672.67 599.248 672.997 598.067 673.58C596.887 674.163 595.842 674.987 595.001 676V676Z" fill="white"/>
<path d="M575.55 130.9C595.504 130.9 611.68 114.724 611.68 94.7696C611.68 74.8156 595.504 58.6396 575.55 58.6396C555.596 58.6396 539.42 74.8156 539.42 94.7696C539.42 114.724 555.596 130.9 575.55 130.9Z" fill="#1D0700"/>
<path d="M547.681 96.8901C551.141 94.9501 551.141 89.3601 554.681 87.5001C558.221 85.6401 562.241 88.8701 564.511 92.1301C567.819 96.9044 570.116 102.305 571.261 108C571.581 109.62 571.881 111.39 573.101 112.52C574.321 113.65 575.921 113.79 577.481 113.95C582.047 114.403 586.621 114.817 591.201 115.19C596.301 115.6 601.681 115.93 606.311 113.74C608.138 112.923 609.708 111.623 610.851 109.98C611.767 108.402 612.422 106.687 612.791 104.9C615.181 95.8101 617.591 86.6101 617.791 77.2101C617.871 73.3301 617.531 69.3101 615.661 65.9101C614.571 63.9101 612.971 62.1701 612.521 59.9701C612.071 57.7701 613.521 54.9701 615.801 55.2101C613.74 55.2948 611.687 54.9048 609.801 54.0701C607.991 53.0701 606.651 50.9201 607.291 48.9601C602.211 49.6101 598.511 44.5901 594.551 41.3401C593.907 40.7017 593.037 40.3424 592.131 40.3401C591.435 40.5136 590.763 40.7722 590.131 41.1101C588.131 41.8101 586.041 40.4801 583.991 39.9001C578.491 38.3601 571.501 42.0801 567.421 38.0801C567.811 40.6301 564.681 42.3401 562.101 42.2901C559.521 42.2401 556.861 41.2901 554.421 42.1501C554.774 42.7964 554.98 43.5129 555.025 44.2482C555.069 44.9835 554.95 45.7196 554.677 46.4037C554.404 47.0878 553.983 47.703 553.444 48.2055C552.905 48.7079 552.262 49.0851 551.561 49.3101L552.771 51.9501C551.524 52.1993 550.372 52.7921 549.444 53.6614C548.516 54.5308 547.85 55.6422 547.521 56.8701C546.191 62.1201 546.521 69.5801 546.841 74.9801C547.001 77.3501 549.311 96.0001 547.681 96.8901Z" fill="black"/>
<path d="M578.509 141.34C560.359 161.75 555.739 190.48 551.869 217.53L546.169 257.47C544.689 267.83 543.169 278.19 541.879 288.58C540.979 295.69 540.139 302.91 541.119 310.01C541.889 315.61 543.759 321.01 545.319 326.4C549.378 340.538 551.399 355.182 551.319 369.89C552.529 366.33 556.719 364.89 560.399 364.09C591.277 357.391 623.492 360.831 652.259 373.9C657.309 359.75 656.359 344.27 657.769 329.31C659.769 307.98 666.659 287.31 668.699 266.02C669.449 258.09 669.539 250.12 669.619 242.15C669.679 236.3 669.739 230.39 668.519 224.66C667.159 218.32 664.289 212.41 661.319 206.66C653.109 190.677 643.987 175.178 633.999 160.24C628.972 152.72 623.729 145.35 618.269 138.13C615.502 134.47 612.679 130.85 609.799 127.27C607.009 123.8 605.799 120.79 601.369 122.87C592.999 126.79 584.599 134.49 578.509 141.34Z" fill="#006837"/>
<path d="M588.911 311.22C584.483 311.38 580.05 311.24 575.641 310.8C572.371 310.48 569.031 310 565.841 310.8C564.454 311.15 563.156 311.787 562.031 312.67C561.614 313.041 561.315 313.526 561.169 314.065C561.023 314.603 561.038 315.173 561.211 315.703C561.384 316.234 561.708 316.703 562.143 317.052C562.578 317.401 563.105 317.616 563.661 317.67L567.081 317.97C569.251 318.16 571.511 318.38 573.201 319.97C573.895 320.595 574.336 321.452 574.441 322.38C574.651 324.71 572.631 325.98 570.821 326.95C568.248 328.159 565.868 329.743 563.761 331.65C562.111 333.245 561.073 335.369 560.831 337.65C560.823 337.854 560.869 338.056 560.964 338.236C561.059 338.416 561.2 338.567 561.372 338.676C561.544 338.784 561.742 338.845 561.946 338.853C562.149 338.861 562.351 338.815 562.531 338.72C566.531 336.72 569.141 330.79 573.531 331.78C569.538 333.045 566.118 335.675 563.871 339.21C563.317 340.054 563.064 341.061 563.153 342.067C563.243 343.072 563.67 344.018 564.364 344.751C565.059 345.484 565.981 345.961 566.98 346.104C567.98 346.247 568.998 346.049 569.871 345.54C570.521 345.16 571.149 344.742 571.751 344.29C574.725 341.883 577.389 339.115 579.681 336.05C576.481 342.8 573.241 350.7 576.921 357.41C577.104 357.779 577.391 358.087 577.746 358.297C578.101 358.506 578.509 358.608 578.921 358.59C580.081 358.47 580.421 357.38 580.611 356.42C581.211 353.33 581.361 350.07 582.881 347.32C586.401 340.94 595.081 340.32 601.691 337.21C609.621 333.53 615.051 325.61 617.241 317.15C618.007 314.683 618.141 312.063 617.631 309.53C616.161 303.84 609.141 302.53 604.631 305.28C599.101 308.79 595.891 311 588.911 311.22Z" fill="#1D0700"/>
<path opacity="0.1" d="M581.889 199.29C588.889 210.1 601.039 216.19 611.459 223.78C614.001 225.436 616.218 227.544 617.999 230C620.629 234.06 620.999 239.22 620.459 244C619.779 250.31 617.749 256.38 615.739 262.4L611.369 275.45C608.599 283.73 605.739 292.18 600.469 299.14C599.119 300.91 597.549 302.8 597.609 305.02C597.726 306.303 598.166 307.535 598.889 308.6C600.576 311.352 602.798 313.737 605.425 315.613C608.052 317.489 611.029 318.818 614.179 319.52C616.066 320 618.042 320 619.929 319.52C622.629 318.72 624.659 316.52 626.539 314.44C635.539 304.51 644.539 294.44 651.039 282.79C657.389 271.42 661.189 258.79 664.689 246.28C666.13 241.675 667.135 236.944 667.689 232.15C668.429 223.15 666.069 214.15 662.209 206.02C658.349 197.89 653.039 190.53 647.569 183.38C642.407 176.357 636.67 169.775 630.419 163.7C619.539 153.53 606.229 147.55 591.669 153.32C581.389 157.4 577.539 165.91 576.619 176.81C575.84 184.68 577.694 192.586 581.889 199.29V199.29Z" fill="black"/>
<path d="M585.531 196.55C592.531 207.36 604.691 213.45 615.101 221.04C617.635 222.712 619.841 224.833 621.611 227.3C624.241 231.36 624.611 236.51 624.071 241.3C623.381 247.61 621.361 253.68 619.341 259.7L614.971 272.7C612.201 280.98 609.341 289.42 604.071 296.39C602.731 298.16 601.161 300.04 601.221 302.27C601.331 303.551 601.772 304.781 602.501 305.84C604.185 308.593 606.405 310.98 609.03 312.857C611.655 314.735 614.631 316.066 617.781 316.77C619.671 317.25 621.651 317.25 623.541 316.77C626.241 315.98 628.261 313.77 630.151 311.7C639.151 301.76 648.151 291.7 654.651 280.05C661.001 268.68 664.801 256.05 668.301 243.53C669.746 238.929 670.75 234.201 671.301 229.41C672.041 220.41 669.681 211.41 665.831 203.27C661.981 195.13 656.661 187.78 651.191 180.63C646.01 173.644 640.261 167.098 634.001 161.06C623.131 150.9 609.821 144.91 595.261 150.69C584.971 154.77 581.131 163.27 580.201 174.18C579.467 182.02 581.34 189.883 585.531 196.55V196.55Z" fill="#006837"/>
<path d="M806.649 555.24C806.657 557.847 806.389 560.449 805.849 563C805.749 563.48 805.639 564 805.529 564.41C802.689 575.8 794.679 584.13 785.119 584.66C784.799 584.66 784.479 584.66 784.119 584.66C774.009 584.66 765.459 575.94 762.639 563.93C762.559 563.61 762.489 563.29 762.419 562.93C761.88 560.378 761.612 557.777 761.619 555.17C761.619 538.9 771.689 525.72 784.119 525.72C796.549 525.72 806.649 539 806.649 555.24Z" fill="black"/>
<path opacity="0.1" d="M806.65 555.24C806.658 557.847 806.39 560.448 805.85 563C805.75 563.48 805.64 563.999 805.53 564.409C805.19 564.409 804.86 564.409 804.53 564.409C802.054 564.276 799.593 563.942 797.17 563.409C795.024 564.073 792.831 564.574 790.61 564.909C788.907 565.166 787.191 565.326 785.47 565.39H783.73C781.67 565.39 779.612 565.253 777.57 564.979C774.268 564.539 771.025 563.734 767.9 562.58C766.19 563.149 764.447 563.617 762.68 563.979C762.6 563.659 762.53 563.339 762.46 562.979C761.921 560.428 761.653 557.827 761.66 555.219C761.66 538.949 771.73 525.77 784.16 525.77C796.59 525.77 806.65 539 806.65 555.24Z" fill="black"/>
<path d="M854.649 500.38C854.659 493.221 852.98 486.16 849.749 479.77L823.289 488L846.519 474.341C842.622 468.713 837.512 464.033 831.565 460.644C825.618 457.255 818.987 455.245 812.159 454.76C811.073 453.112 809.88 451.535 808.589 450.04L770.589 461.87L801.759 443.54C795.797 438.964 788.798 435.928 781.383 434.701C773.967 433.474 766.364 434.094 759.245 436.506C752.126 438.917 745.712 443.046 740.569 448.527C735.426 454.008 731.713 460.673 729.759 467.93L762.309 505.4L726.999 479.86C718.055 486.204 711.687 495.551 709.056 506.197C706.426 516.842 707.707 528.079 712.668 537.859C717.628 547.639 725.937 555.311 736.08 559.478C746.223 563.645 757.526 564.029 767.929 560.56C777.339 564.02 787.623 564.304 797.209 561.37C803.893 562.841 810.821 562.795 817.484 561.235C824.147 559.676 830.376 556.642 835.712 552.357C841.048 548.073 845.356 542.646 848.318 536.477C851.28 530.308 852.822 523.554 852.829 516.71C852.829 515.71 852.829 514.71 852.729 513.71C854.025 509.387 854.672 504.894 854.649 500.38V500.38Z" fill="#006837"/>
<path opacity="0.1" d="M853.86 508.86C839.887 506.212 825.557 506.029 811.52 508.32C795.63 510.95 779.39 516.73 763.85 512.51C754.73 510.03 746.85 504.29 737.94 501.1C729.344 498.101 720.083 497.547 711.19 499.5C707.802 507.607 706.819 516.518 708.359 525.169C709.899 533.82 713.897 541.844 719.875 548.283C725.854 554.723 733.56 559.305 742.072 561.482C750.585 563.659 759.545 563.339 767.88 560.56C777.29 564.019 787.574 564.304 797.16 561.37C803.844 562.841 810.772 562.795 817.435 561.235C824.098 559.676 830.327 556.642 835.663 552.357C840.999 548.073 845.307 542.646 848.269 536.477C851.231 530.308 852.773 523.554 852.781 516.71C852.781 515.71 852.78 514.71 852.68 513.71C853.163 512.117 853.557 510.497 853.86 508.86Z" fill="black"/>
</svg>
